<svg width="70" height="73" viewBox="0 0 70 73" fill="none" xmlns="http://www.w3.org/2000/svg">
<path d="M35 -0.00195312L65.3109 18.1023V54.3107L35 72.4149L4.68911 54.3107V18.1023L35 -0.00195312Z" fill="url(#paint0_radial_8632_16674)"/>
<path d="M6.41781 19.113L35.1018 1.98053L63.7857 19.113V53.3961L35.1018 70.5286L6.41781 53.3961V19.113Z" stroke="white" stroke-width="0.610465"/>
<path d="M22.4501 40.2739C22.8136 40.2739 23.1588 40.2058 23.4859 40.0695C23.8161 39.9302 24.1129 39.7287 24.3764 39.4652C24.6368 39.2048 24.8352 38.9095 24.9715 38.5794C25.1078 38.2492 25.1759 37.8994 25.1759 37.5299C25.1759 37.1574 25.1063 36.803 24.967 36.4668C24.8307 36.1306 24.6338 35.8338 24.3764 35.5764C24.1159 35.3159 23.8206 35.1175 23.4905 34.9812C23.1634 34.845 22.8166 34.7768 22.4501 34.7768C22.0806 34.7768 21.7308 34.845 21.4007 34.9812C21.0705 35.1175 20.7783 35.3159 20.5239 35.5764C20.2634 35.8399 20.065 36.1382 19.9287 36.4714C19.7924 36.8045 19.7243 37.1574 19.7243 37.5299C19.7243 37.8994 19.7909 38.2477 19.9242 38.5748C20.0605 38.9019 20.2604 39.1987 20.5239 39.4652C20.7904 39.7318 21.0857 39.9332 21.4097 40.0695C21.7368 40.2058 22.0836 40.2739 22.4501 40.2739ZM26.0028 37.5299C26.0028 38.0054 25.915 38.4537 25.7393 38.8746C25.5636 39.2956 25.3077 39.6697 24.9715 39.9968C24.6353 40.3239 24.2476 40.5768 23.8085 40.7555C23.3724 40.9311 22.9196 41.019 22.4501 41.019C21.9807 41.019 21.5279 40.9311 21.0917 40.7555C20.6586 40.5768 20.274 40.3239 19.9378 39.9968C19.5986 39.6667 19.3396 39.2911 19.1609 38.8701C18.9853 38.4491 18.8974 38.0024 18.8974 37.5299C18.8974 37.0544 18.9853 36.6061 19.1609 36.1852C19.3396 35.7611 19.5986 35.3841 19.9378 35.0539C20.271 34.7299 20.6556 34.48 21.0917 34.3043C21.5279 34.1287 21.9807 34.0408 22.4501 34.0408C22.9226 34.0408 23.3769 34.1287 23.813 34.3043C24.2522 34.48 24.6384 34.7299 24.9715 35.0539C25.3077 35.381 25.5636 35.7566 25.7393 36.1806C25.915 36.6016 26.0028 37.0514 26.0028 37.5299ZM27.2976 40.8418V33.9273L32.1632 39.2426V34.1908H32.9173V41.1008L28.0517 35.8444V40.8418H27.2976ZM34.5119 40.8418V34.1908H35.3024V40.0876H37.8148V40.8418H34.5119ZM38.7643 40.8418V34.1908H39.5547V40.8418H38.7643ZM41.163 40.8418V33.9273L46.0286 39.2426V34.1908H46.7828V41.1008L41.9171 35.8444V40.8418H41.163ZM48.3774 40.8418V34.1908H51.8846V34.9131H49.1679V36.8212H51.8846V37.5572H49.1679V40.1058H51.8846V40.8418H48.3774ZM18.1342 51.8418V45.1908H19.697C20.1422 45.1908 20.4678 45.2165 20.6738 45.268C20.8828 45.3164 21.066 45.4012 21.2235 45.5224C21.4203 45.6769 21.5733 45.8843 21.6823 46.1448C21.7914 46.4022 21.8459 46.6884 21.8459 47.0034C21.8459 47.5486 21.6929 47.9635 21.387 48.2482C21.0842 48.5299 20.6389 48.6707 20.0514 48.6707H19.9105L22.4501 51.8418H21.4461L19.0201 48.6707H18.9065V51.8418H18.1342ZM18.9065 45.8586V48.0847H19.5107C20.1286 48.0847 20.542 48.0059 20.751 47.8484C20.96 47.6879 21.0645 47.4093 21.0645 47.0125C21.0645 46.5855 20.957 46.2871 20.7419 46.1175C20.5269 45.9449 20.1165 45.8586 19.5107 45.8586H18.9065ZM23.1134 51.8418V45.1908H26.6206V45.9131H23.9039V47.8212H26.6206V48.5572H23.9039V51.1058H26.6206V51.8418H23.1134ZM29.1284 51.8418V45.9449H27.2476V45.1908H31.7997V45.9449H29.928V51.8418H29.1284ZM34.1031 46.6763L33.0445 49.125H35.1616L34.1031 46.6763ZM34.1031 44.9273L37.1288 51.8418H36.2701L35.4069 49.802H32.8083L31.9451 51.8418H31.0865L34.1031 44.9273ZM37.8238 51.8418V45.1908H38.6143V51.8418H37.8238ZM40.2226 51.8418V45.1908H41.0131V51.0876H43.5254V51.8418H40.2226ZM44.4658 51.8418V45.1908H47.973V45.9131H45.2563V47.8212H47.973V48.5572H45.2563V51.1058H47.973V51.8418H44.4658ZM49.3178 51.8418V45.1908H50.8806C51.3258 45.1908 51.6514 45.2165 51.8574 45.268C52.0663 45.3164 52.2496 45.4012 52.4071 45.5224C52.6039 45.6769 52.7569 45.8843 52.8659 46.1448C52.975 46.4022 53.0295 46.6884 53.0295 47.0034C53.0295 47.5486 52.8765 47.9635 52.5706 48.2482C52.2678 48.5299 51.8225 48.6707 51.235 48.6707H51.0941L53.6337 51.8418H52.6297L50.2037 48.6707H50.0901V51.8418H49.3178ZM50.0901 45.8586V48.0847H50.6943C51.3122 48.0847 51.7256 48.0059 51.9346 47.8484C52.1436 47.6879 52.2481 47.4093 52.2481 47.0125C52.2481 46.5855 52.1406 46.2871 51.9255 46.1175C51.7105 45.9449 51.3001 45.8586 50.6943 45.8586H50.0901Z" fill="white"/>
<path d="M17.5755 28.9169C16.9279 28.9169 16.4255 28.8276 16.0682 28.6489C15.7184 28.4628 15.4616 28.1912 15.2978 27.8339C15.1415 27.4692 15.0485 27.0188 15.0187 26.4829C14.9889 25.9395 14.974 25.3069 14.974 24.5849C14.974 23.8629 14.9852 23.2302 15.0075 22.6868C15.0373 22.1434 15.1341 21.6894 15.2978 21.3247C15.4616 20.9599 15.7184 20.6845 16.0682 20.4985C16.4255 20.3124 16.9279 20.2193 17.5755 20.2193C18.2305 20.2193 18.7329 20.3124 19.0828 20.4985C19.4401 20.6845 19.7006 20.9599 19.8643 21.3247C20.0281 21.6894 20.1211 22.1434 20.1435 22.6868C20.1732 23.2302 20.1881 23.8629 20.1881 24.5849C20.1881 25.3069 20.1732 25.9395 20.1435 26.4829C20.1137 27.0188 20.0169 27.4692 19.8532 27.8339C19.6894 28.1912 19.4289 28.4628 19.0716 28.6489C18.7218 28.8276 18.2231 28.9169 17.5755 28.9169ZM18.491 24.1383C18.491 23.6023 18.4836 23.1632 18.4687 22.8208C18.4613 22.4784 18.4278 22.2067 18.3682 22.0057C18.3087 21.8048 18.2156 21.6671 18.0891 21.5926C17.97 21.5182 17.7988 21.481 17.5755 21.481C17.3596 21.481 17.1884 21.5182 17.0619 21.5926C16.9428 21.6671 16.8535 21.8048 16.7939 22.0057C16.7344 22.2067 16.6972 22.4784 16.6823 22.8208C16.6748 23.1632 16.6711 23.6023 16.6711 24.1383V24.8751C16.6711 25.426 16.6748 25.8837 16.6823 26.2484C16.6972 26.6057 16.7344 26.8923 16.7939 27.1082C16.8535 27.3166 16.9428 27.4654 17.0619 27.5548C17.1884 27.6366 17.3596 27.6776 17.5755 27.6776C17.7988 27.6776 17.97 27.6366 18.0891 27.5548C18.2156 27.4654 18.3087 27.3166 18.3682 27.1082C18.4278 26.8923 18.4613 26.6057 18.4687 26.2484C18.4836 25.8837 18.491 25.426 18.491 24.8751V24.1383ZM21.5836 28.8164V20.3421H25.7928V21.6596H23.2583V24.0266H25.603V25.3217H23.2583V28.8164H21.5836ZM26.8717 28.8164V20.3421H31.0809V21.6596H28.5464V24.0266H30.8911V25.3217H28.5464V28.8164H26.8717ZM32.238 28.8164V20.3421H33.9016V28.8164H32.238ZM40.4429 25.7907C40.4429 26.2522 40.4243 26.6727 40.3871 27.0523C40.3573 27.4319 40.2605 27.7632 40.0968 28.046C39.9405 28.3214 39.6948 28.5373 39.3599 28.6936C39.0324 28.8425 38.5746 28.9169 37.9866 28.9169C37.339 28.9169 36.8366 28.8276 36.4793 28.6489C36.1295 28.4628 35.8727 28.1912 35.7089 27.8339C35.5452 27.4692 35.4484 27.0188 35.4186 26.4829C35.3888 25.9395 35.374 25.3069 35.374 24.5849C35.374 23.8629 35.3851 23.2302 35.4075 22.6868C35.4372 22.1434 35.534 21.6894 35.6977 21.3247C35.8615 20.9599 36.1183 20.6845 36.4681 20.4985C36.8254 20.3124 37.3316 20.2193 37.9866 20.2193C38.5597 20.2193 39.01 20.29 39.3375 20.4315C39.6651 20.5729 39.9107 20.7739 40.0744 21.0344C40.2382 21.2949 40.3387 21.6075 40.3759 21.9722C40.4206 22.3295 40.4429 22.724 40.4429 23.1557H38.8909C38.8835 22.8506 38.8686 22.5938 38.8463 22.3853C38.824 22.1695 38.783 21.9946 38.7235 21.8606C38.6639 21.7266 38.5746 21.6298 38.4555 21.5703C38.3364 21.5108 38.1801 21.481 37.9866 21.481C37.7633 21.481 37.5884 21.5294 37.4618 21.6261C37.3353 21.7154 37.2422 21.8792 37.1827 22.1174C37.1306 22.3481 37.0971 22.6645 37.0822 23.0664C37.0748 23.4609 37.071 23.9633 37.071 24.5737C37.071 25.184 37.0748 25.6902 37.0822 26.0921C37.0896 26.4866 37.1194 26.803 37.1715 27.0412C37.2311 27.2719 37.3204 27.4357 37.4395 27.5324C37.566 27.6292 37.7484 27.6776 37.9866 27.6776C38.1875 27.6776 38.3476 27.6441 38.4667 27.5771C38.5858 27.5101 38.6751 27.4022 38.7346 27.2533C38.8016 27.1044 38.8426 26.9109 38.8574 26.6727C38.8798 26.4345 38.8909 26.1405 38.8909 25.7907H40.4429ZM41.9202 28.8164V20.3421H43.5837V28.8164H41.9202ZM48.7741 28.8164L48.4615 26.9295H46.7421L46.4183 28.8164H44.7435L46.4518 20.3421H48.8411L50.4935 28.8164H48.7741ZM47.959 23.8033C47.9144 23.5428 47.8734 23.3158 47.8362 23.1222C47.8065 22.9213 47.7804 22.7389 47.7581 22.5752C47.7357 22.404 47.7134 22.2365 47.6911 22.0727C47.6762 21.909 47.6576 21.7303 47.6353 21.5368C47.6129 21.7303 47.5906 21.909 47.5683 22.0727C47.5459 22.2365 47.5199 22.404 47.4901 22.5752C47.4678 22.7389 47.438 22.9213 47.4008 23.1222C47.371 23.3158 47.3338 23.5428 47.2891 23.8033L46.943 25.6567H48.2717L47.959 23.8033ZM51.5678 28.8164V20.3421H53.2425V27.4654H55.5984V28.8164H51.5678Z" fill="white"/>
<defs>
<radialGradient id="paint0_radial_8632_16674" cx="0" cy="0" r="1" gradientUnits="userSpaceOnUse" gradientTransform="translate(64.5 59.999) rotate(-126.529) scale(67.2012 64.9584)">
<stop stop-color="#034EA2"/>
<stop offset="0.11209" stop-color="#026CE3"/>
<stop offset="0.970472" stop-color="#034EA2"/>
</radialGradient>
</defs>
</svg>
