<svg width="70" height="26" viewBox="0 0 70 26" fill="none" xmlns="http://www.w3.org/2000/svg">
<g clip-path="url(#clip0_9428_18380)">
<path d="M16.3984 4.57812H68.3143C69.2452 4.57812 69.9999 5.33278 69.9999 6.2637V19.0741C69.9999 20.005 69.2452 20.7597 68.3143 20.7597H16.3984V4.57812Z" fill="#057B57"/>
<path d="M0.220142 11.5831V5.06577L9.99177 0.722813L19.7635 5.06577V11.5831C19.7635 17.6283 15.5885 23.2754 9.99177 24.6646C4.39504 23.2754 0.220142 17.6283 0.220142 11.5831Z" fill="url(#paint0_linear_9428_18380)" stroke="white" stroke-width="0.346535"/>
<path d="M29.3661 18.5488H27.7806V15.7959H29.3661V16.2742H28.3643V16.8786H29.2964V17.3569H28.3643V18.0668H29.3661V18.5488ZM30.3283 17.4737L29.6504 16.4437H30.3019L30.7105 17.114L31.1229 16.4437H31.7744L31.089 17.4737L31.8064 18.5488H31.153L30.7105 17.8277L30.2661 18.5488H29.6146L30.3283 17.4737ZM33.0134 18.1289C33.0761 18.1289 33.137 18.1226 33.196 18.1101C33.2563 18.0975 33.3159 18.0819 33.3749 18.063V18.4905C33.3134 18.5181 33.2368 18.5407 33.1452 18.5582C33.0548 18.5771 32.9556 18.5865 32.8477 18.5865C32.7221 18.5865 32.6092 18.5664 32.5087 18.5262C32.4096 18.4848 32.3311 18.4139 32.2734 18.3135C32.2169 18.2118 32.1886 18.0706 32.1886 17.8898V16.8749H31.9137V16.632L32.2301 16.4399L32.3958 15.9955H32.7629V16.4437H33.3523V16.8749H32.7629V17.8898C32.7629 17.9701 32.7855 18.0304 32.8307 18.0706C32.8772 18.1095 32.9381 18.1289 33.0134 18.1289ZM34.6704 16.4041C34.865 16.4041 35.0325 16.4418 35.1731 16.5171C35.3137 16.5912 35.4223 16.6991 35.4989 16.841C35.5755 16.9828 35.6138 17.1561 35.6138 17.3607V17.6394H34.2561C34.2624 17.8013 34.3107 17.9287 34.4011 18.0216C34.4928 18.1132 34.6195 18.1591 34.7815 18.1591C34.9158 18.1591 35.0388 18.1452 35.1505 18.1176C35.2623 18.09 35.3771 18.0486 35.4951 17.9934V18.4377C35.3909 18.4892 35.2817 18.5269 35.1675 18.5507C35.0545 18.5746 34.9171 18.5865 34.7551 18.5865C34.5442 18.5865 34.3572 18.5476 34.194 18.4697C34.0321 18.3919 33.9046 18.2733 33.8117 18.1139C33.7201 17.9544 33.6743 17.7536 33.6743 17.5113C33.6743 17.2653 33.7157 17.0607 33.7986 16.8975C33.8827 16.733 33.9994 16.61 34.1488 16.5284C34.2982 16.4455 34.472 16.4041 34.6704 16.4041ZM34.6742 16.8127C34.5624 16.8127 34.4695 16.8485 34.3955 16.9201C34.3227 16.9916 34.2806 17.104 34.2693 17.2571H35.0752C35.074 17.1717 35.0583 17.0958 35.0281 17.0293C34.9993 16.9627 34.9553 16.91 34.8963 16.8711C34.8386 16.8322 34.7645 16.8127 34.6742 16.8127ZM37.2764 16.4041C37.5011 16.4041 37.6819 16.4656 37.8187 16.5887C37.9555 16.7104 38.024 16.9062 38.024 17.1761V18.5488H37.4496V17.3192C37.4496 17.1686 37.422 17.055 37.3668 16.9784C37.3128 16.9019 37.2275 16.8636 37.1107 16.8636C36.935 16.8636 36.8151 16.9232 36.7511 17.0425C36.687 17.1617 36.655 17.3337 36.655 17.5584V18.5488H36.0807V16.4437H36.5195L36.5967 16.7129H36.6287C36.6739 16.6401 36.7297 16.5811 36.7963 16.5359C36.864 16.4907 36.9387 16.4575 37.0203 16.4361C37.1032 16.4148 37.1885 16.4041 37.2764 16.4041ZM39.2818 18.5865C39.047 18.5865 38.8556 18.4948 38.7075 18.3116C38.5606 18.127 38.4872 17.8565 38.4872 17.5C38.4872 17.1397 38.5619 16.8673 38.7112 16.6828C38.8606 16.497 39.0558 16.4041 39.2968 16.4041C39.3973 16.4041 39.4858 16.4179 39.5623 16.4455C39.6389 16.4732 39.7048 16.5102 39.7601 16.5566C39.8165 16.6031 39.8642 16.6552 39.9032 16.7129H39.922C39.9145 16.6728 39.905 16.6138 39.8937 16.5359C39.8837 16.4568 39.8787 16.3759 39.8787 16.293V15.6189H40.4549V18.5488H40.0143L39.9032 18.2758H39.8787C39.8423 18.3335 39.7965 18.3863 39.7412 18.434C39.6872 18.4804 39.6226 18.5174 39.5473 18.5451C39.472 18.5727 39.3835 18.5865 39.2818 18.5865ZM39.4833 18.1289C39.6402 18.1289 39.7506 18.0825 39.8147 17.9896C39.8799 17.8954 39.9145 17.7542 39.9182 17.5659V17.5038C39.9182 17.2992 39.8868 17.1429 39.8241 17.0349C39.7613 16.9257 39.6446 16.8711 39.4738 16.8711C39.3471 16.8711 39.2479 16.9257 39.1763 17.0349C39.1048 17.1441 39.069 17.3017 39.069 17.5075C39.069 17.7134 39.1048 17.8684 39.1763 17.9726C39.2491 18.0768 39.3514 18.1289 39.4833 18.1289ZM41.9236 16.4041C42.1182 16.4041 42.2857 16.4418 42.4263 16.5171C42.5669 16.5912 42.6755 16.6991 42.7521 16.841C42.8287 16.9828 42.867 17.1561 42.867 17.3607V17.6394H41.5093C41.5156 17.8013 41.5639 17.9287 41.6543 18.0216C41.746 18.1132 41.8727 18.1591 42.0347 18.1591C42.169 18.1591 42.292 18.1452 42.4037 18.1176C42.5155 18.09 42.6303 18.0486 42.7483 17.9934V18.4377C42.6441 18.4892 42.5349 18.5269 42.4207 18.5507C42.3077 18.5746 42.1703 18.5865 42.0083 18.5865C41.7974 18.5865 41.6104 18.5476 41.4472 18.4697C41.2853 18.3919 41.1578 18.2733 41.065 18.1139C40.9733 17.9544 40.9275 17.7536 40.9275 17.5113C40.9275 17.2653 40.9689 17.0607 41.0518 16.8975C41.1359 16.733 41.2526 16.61 41.402 16.5284C41.5514 16.4455 41.7252 16.4041 41.9236 16.4041ZM41.9274 16.8127C41.8156 16.8127 41.7227 16.8485 41.6487 16.9201C41.5759 16.9916 41.5338 17.104 41.5225 17.2571H42.3284C42.3272 17.1717 42.3115 17.0958 42.2814 17.0293C42.2525 16.9627 42.2085 16.91 42.1495 16.8711C42.0918 16.8322 42.0177 16.8127 41.9274 16.8127ZM44.0005 18.5865C43.7658 18.5865 43.5743 18.4948 43.4262 18.3116C43.2793 18.127 43.2059 17.8565 43.2059 17.5C43.2059 17.1397 43.2806 16.8673 43.43 16.6828C43.5793 16.497 43.7745 16.4041 44.0156 16.4041C44.116 16.4041 44.2045 16.4179 44.2811 16.4455C44.3576 16.4732 44.4235 16.5102 44.4788 16.5566C44.5353 16.6031 44.583 16.6552 44.6219 16.7129H44.6407C44.6332 16.6728 44.6238 16.6138 44.6125 16.5359C44.6024 16.4568 44.5974 16.3759 44.5974 16.293V15.6189H45.1736V18.5488H44.733L44.6219 18.2758H44.5974C44.561 18.3335 44.5152 18.3863 44.4599 18.434C44.406 18.4804 44.3413 18.5174 44.266 18.5451C44.1907 18.5727 44.1022 18.5865 44.0005 18.5865ZM44.202 18.1289C44.3589 18.1289 44.4694 18.0825 44.5334 17.9896C44.5987 17.8954 44.6332 17.7542 44.6369 17.5659V17.5038C44.6369 17.2992 44.6056 17.1429 44.5428 17.0349C44.48 16.9257 44.3633 16.8711 44.1926 16.8711C44.0658 16.8711 43.9666 16.9257 43.8951 17.0349C43.8235 17.1441 43.7877 17.3017 43.7877 17.5075C43.7877 17.7134 43.8235 17.8684 43.8951 17.9726C43.9679 18.0768 44.0702 18.1289 44.202 18.1289ZM50.203 15.7959L49.5025 18.5488H48.8379L48.465 17.1027C48.4575 17.0751 48.4475 17.033 48.4349 16.9765C48.4223 16.9201 48.4092 16.8585 48.3954 16.792C48.3815 16.7242 48.369 16.6608 48.3577 16.6018C48.3477 16.5416 48.3408 16.4939 48.337 16.4587C48.3332 16.4939 48.3257 16.541 48.3144 16.6C48.3043 16.659 48.2924 16.7217 48.2786 16.7883C48.2661 16.8548 48.2535 16.9169 48.241 16.9747C48.2284 17.0324 48.2184 17.0763 48.2108 17.1065L47.8399 18.5488H47.1771L46.4747 15.7959H47.049L47.4011 17.2985C47.4112 17.3437 47.4225 17.3977 47.435 17.4605C47.4489 17.5232 47.462 17.5891 47.4746 17.6582C47.4884 17.726 47.5003 17.7919 47.5104 17.8559C47.5217 17.9187 47.5298 17.9733 47.5348 18.0197C47.5411 17.972 47.5493 17.9168 47.5593 17.854C47.5694 17.79 47.58 17.7253 47.5913 17.6601C47.6039 17.5935 47.6164 17.532 47.629 17.4755C47.6415 17.419 47.6528 17.3732 47.6629 17.3381L48.064 15.7959H48.6157L49.0167 17.3381C49.0255 17.372 49.0356 17.4178 49.0469 17.4755C49.0594 17.532 49.072 17.5935 49.0845 17.6601C49.0971 17.7266 49.1084 17.7919 49.1184 17.8559C49.1297 17.9187 49.1379 17.9733 49.1429 18.0197C49.1517 17.9569 49.1636 17.881 49.1787 17.7919C49.195 17.7015 49.2119 17.6117 49.2295 17.5226C49.2483 17.4335 49.2647 17.3588 49.2785 17.2985L49.6287 15.7959H50.203ZM51.3667 16.4004C51.6491 16.4004 51.8657 16.4619 52.0163 16.5849C52.1669 16.7079 52.2423 16.895 52.2423 17.146V18.5488H51.8412L51.7301 18.2626H51.715C51.6548 18.3379 51.5933 18.3994 51.5305 18.4471C51.4677 18.4948 51.3956 18.53 51.314 18.5526C51.2324 18.5752 51.1332 18.5865 51.0165 18.5865C50.8922 18.5865 50.7805 18.5626 50.6813 18.5149C50.5834 18.4672 50.5062 18.3944 50.4497 18.2965C50.3932 18.1973 50.3649 18.0718 50.3649 17.9199C50.3649 17.6965 50.4434 17.532 50.6003 17.4266C50.7572 17.3199 50.9926 17.2609 51.3064 17.2496L51.6717 17.2383V17.146C51.6717 17.0355 51.6429 16.9546 51.5851 16.9031C51.5274 16.8516 51.447 16.8259 51.3441 16.8259C51.2424 16.8259 51.1426 16.8403 51.0447 16.8692C50.9468 16.8981 50.8489 16.9345 50.751 16.9784L50.5608 16.5905C50.6725 16.5315 50.7974 16.4851 50.9355 16.4512C51.0748 16.4173 51.2186 16.4004 51.3667 16.4004ZM51.6717 17.5734L51.4495 17.581C51.2638 17.586 51.1345 17.6193 51.0616 17.6808C50.9901 17.7423 50.9543 17.8233 50.9543 17.9237C50.9543 18.0116 50.98 18.0743 51.0315 18.112C51.083 18.1484 51.1501 18.1666 51.233 18.1666C51.356 18.1666 51.4596 18.1302 51.5437 18.0574C51.629 17.9846 51.6717 17.881 51.6717 17.7467V17.5734ZM54.0104 16.4041C54.0392 16.4041 54.0725 16.406 54.1102 16.4098C54.1491 16.4123 54.1805 16.416 54.2043 16.4211L54.161 16.9596C54.1422 16.9533 54.1152 16.9489 54.08 16.9464C54.0462 16.9427 54.0167 16.9408 53.9915 16.9408C53.9175 16.9408 53.8453 16.9502 53.775 16.969C53.706 16.9878 53.6438 17.0186 53.5886 17.0613C53.5334 17.1027 53.4894 17.1579 53.4568 17.227C53.4254 17.2948 53.4097 17.3782 53.4097 17.4774V18.5488H52.8354V16.4437H53.2704L53.3551 16.7977H53.3833C53.4248 16.7261 53.4762 16.6608 53.5378 16.6018C53.6005 16.5416 53.6714 16.4939 53.7505 16.4587C53.8309 16.4223 53.9175 16.4041 54.0104 16.4041ZM55.7615 16.4041C55.7904 16.4041 55.8237 16.406 55.8613 16.4098C55.9003 16.4123 55.9316 16.416 55.9555 16.4211L55.9122 16.9596C55.8933 16.9533 55.8664 16.9489 55.8312 16.9464C55.7973 16.9427 55.7678 16.9408 55.7427 16.9408C55.6686 16.9408 55.5965 16.9502 55.5262 16.969C55.4571 16.9878 55.395 17.0186 55.3398 17.0613C55.2845 17.1027 55.2406 17.1579 55.2079 17.227C55.1766 17.2948 55.1609 17.3782 55.1609 17.4774V18.5488H54.5866V16.4437H55.0215L55.1063 16.7977H55.1345C55.1759 16.7261 55.2274 16.6608 55.2889 16.6018C55.3517 16.5416 55.4226 16.4939 55.5017 16.4587C55.582 16.4223 55.6686 16.4041 55.7615 16.4041ZM57.2001 16.4004C57.4826 16.4004 57.6991 16.4619 57.8498 16.5849C58.0004 16.7079 58.0757 16.895 58.0757 17.146V18.5488H57.6746L57.5635 18.2626H57.5485C57.4882 18.3379 57.4267 18.3994 57.3639 18.4471C57.3012 18.4948 57.229 18.53 57.1474 18.5526C57.0658 18.5752 56.9666 18.5865 56.8499 18.5865C56.7256 18.5865 56.6139 18.5626 56.5147 18.5149C56.4168 18.4672 56.3396 18.3944 56.2831 18.2965C56.2266 18.1973 56.1984 18.0718 56.1984 17.9199C56.1984 17.6965 56.2768 17.532 56.4338 17.4266C56.5907 17.3199 56.826 17.2609 57.1399 17.2496L57.5052 17.2383V17.146C57.5052 17.0355 57.4763 16.9546 57.4186 16.9031C57.3608 16.8516 57.2805 16.8259 57.1775 16.8259C57.0759 16.8259 56.9761 16.8403 56.8781 16.8692C56.7802 16.8981 56.6823 16.9345 56.5844 16.9784L56.3942 16.5905C56.5059 16.5315 56.6308 16.4851 56.7689 16.4512C56.9083 16.4173 57.052 16.4004 57.2001 16.4004ZM57.5052 17.5734L57.283 17.581C57.0972 17.586 56.9679 17.6193 56.8951 17.6808C56.8235 17.7423 56.7878 17.8233 56.7878 17.9237C56.7878 18.0116 56.8135 18.0743 56.865 18.112C56.9164 18.1484 56.9836 18.1666 57.0664 18.1666C57.1895 18.1666 57.293 18.1302 57.3771 18.0574C57.4625 17.9846 57.5052 17.881 57.5052 17.7467V17.5734ZM59.8645 16.4041C60.0892 16.4041 60.27 16.4656 60.4068 16.5887C60.5437 16.7104 60.6121 16.9062 60.6121 17.1761V18.5488H60.0378V17.3192C60.0378 17.1686 60.0102 17.055 59.9549 16.9784C59.9009 16.9019 59.8156 16.8636 59.6988 16.8636C59.5231 16.8636 59.4032 16.9232 59.3392 17.0425C59.2752 17.1617 59.2432 17.3337 59.2432 17.5584V18.5488H58.6688V16.4437H59.1076L59.1848 16.7129H59.2168C59.262 16.6401 59.3178 16.5811 59.3844 16.5359C59.4522 16.4907 59.5269 16.4575 59.6085 16.4361C59.6913 16.4148 59.7767 16.4041 59.8645 16.4041ZM62.0902 18.1289C62.153 18.1289 62.2139 18.1226 62.2729 18.1101C62.3331 18.0975 62.3927 18.0819 62.4517 18.063V18.4905C62.3902 18.5181 62.3137 18.5407 62.222 18.5582C62.1316 18.5771 62.0325 18.5865 61.9245 18.5865C61.799 18.5865 61.686 18.5664 61.5856 18.5262C61.4864 18.4848 61.4079 18.4139 61.3502 18.3135C61.2937 18.2118 61.2655 18.0706 61.2655 17.8898V16.8749H60.9905V16.632L61.3069 16.4399L61.4726 15.9955H61.8398V16.4437H62.4291V16.8749H61.8398V17.8898C61.8398 17.9701 61.8624 18.0304 61.9076 18.0706C61.954 18.1095 62.0149 18.1289 62.0902 18.1289ZM62.5779 16.4437H63.2068L63.6041 17.6281C63.6167 17.6657 63.6273 17.704 63.6361 17.7429C63.6449 17.7818 63.6524 17.822 63.6587 17.8634C63.665 17.9049 63.67 17.9482 63.6738 17.9934H63.6851C63.6926 17.9256 63.7027 17.8622 63.7152 17.8032C63.729 17.7442 63.746 17.6858 63.7661 17.6281L64.1558 16.4437H64.7716L63.8809 18.8181C63.8269 18.9637 63.7566 19.0848 63.67 19.1815C63.5834 19.2794 63.4836 19.3529 63.3706 19.4018C63.2589 19.4508 63.1359 19.4752 63.0016 19.4752C62.9363 19.4752 62.8798 19.4715 62.8321 19.464C62.7844 19.4577 62.7436 19.4508 62.7097 19.4432V18.9876C62.7361 18.9938 62.7693 18.9995 62.8095 19.0045C62.8497 19.0095 62.8917 19.012 62.9357 19.012C63.016 19.012 63.085 18.9951 63.1428 18.9612C63.2005 18.9273 63.2489 18.8815 63.2878 18.8237C63.3267 18.7673 63.3574 18.7051 63.38 18.6373L63.4139 18.5338L62.5779 16.4437Z" fill="white"/>
<path d="M15.2791 9.03572C14.959 2.63442 5.70498 2.64385 5.39314 9.03572H3.49609L4.36871 16.6531C4.50548 17.8665 5.24679 18.7954 6.78548 18.7927H13.8977C15.4323 18.7927 16.1736 17.88 16.3145 16.9228L17.1802 9.03572H15.2791ZM7.24915 16.5668C7.22453 15.5476 7.1452 12.3604 7.12468 11.3991C7.12468 10.361 6.92089 8.74856 7.36677 7.77919C7.61351 7.23781 8.00721 6.77416 8.5044 6.43942C9.00159 6.10468 9.58295 5.91187 10.1843 5.88226C15.6073 6.0737 13.977 13.8704 8.96428 11.9977C9.00531 13.1248 9.10105 15.4141 9.13798 16.5668H7.24915Z" fill="white"/>
<path d="M9.82933 10.4774C10.0614 10.5586 10.3101 10.5825 10.5536 10.5468C10.7972 10.5112 11.0281 10.4171 11.2262 10.273C11.4243 10.1288 11.5834 9.93897 11.6897 9.72004C11.796 9.50111 11.8462 9.25982 11.8358 9.01733C11.8002 7.92798 10.5255 7.24039 9.57767 7.80394C9.33251 7.94707 9.13362 8.15587 9.00415 8.40606C8.87467 8.65625 8.81993 8.93754 8.8463 9.2172C8.87266 9.49685 8.97905 9.76338 9.15307 9.98577C9.3271 10.2082 9.56161 10.3773 9.82933 10.4734" fill="white"/>
<g clip-path="url(#clip1_9428_18380)">
<g clip-path="url(#clip2_9428_18380)">
<path d="M35.5095 8.5762V9.69089C34.6577 9.55996 33.9725 10.065 33.9928 10.9324V13.0052H32.9766V8.64063H33.9928V9.2967H34.0062C34.1726 9.05938 34.3986 8.8686 34.662 8.74294C34.9255 8.61728 35.2175 8.56103 35.5095 8.57966" fill="white"/>
<path d="M36.0841 7.7914C35.4565 7.15056 36.4095 6.24301 37.0526 6.85336C37.6851 7.4935 36.7188 8.39482 36.0841 7.7914ZM36.0574 8.63729H37.073V13.0019H36.0567L36.0574 8.63729Z" fill="white"/>
<path d="M38.9369 12.7961C37.8426 12.237 37.5509 10.6699 38.1343 9.65431C38.8617 8.3006 41.0439 8.22647 41.9998 9.38551L41.3082 9.97577C40.4957 9.03635 38.8237 9.49082 38.8771 10.8196C38.8357 12.1594 40.4627 12.5973 41.3173 11.6939L42.0201 12.3063C41.3173 13.0947 39.8829 13.3157 38.9418 12.7961" fill="white"/>
<path d="M51.7366 10.3604H50.6726C50.9614 11.2007 50.3914 12.1921 49.4511 12.1665C48.5072 12.1997 47.9372 11.1896 48.2261 10.3604H47.1641C46.6018 13.976 52.3003 13.983 51.7366 10.3604Z" fill="white"/>
<path d="M56.2682 8.6377L53.8336 14.7765H52.7646L53.563 12.7605L51.7617 8.6377H52.8307L54.055 11.5848H54.0642L55.2041 8.6377H56.2682Z" fill="white"/>
<path d="M32.0885 7.6364C31.4061 6.30139 29.1704 6.3201 28.5041 7.6558C28.3423 7.96431 28.2565 8.3061 28.2539 8.65341V13.0062H29.3081V10.5551C31.3365 11.4689 33.0373 9.54573 32.0871 7.6364H32.0885ZM31.0448 9.49723C30.6519 9.92122 29.8887 9.91845 29.5028 9.49099C29.0952 9.08641 29.0994 8.29108 29.5028 7.8858C29.8732 7.45974 30.6688 7.45696 31.049 7.87957C31.4567 8.27169 31.4623 9.10373 31.0455 9.49723" fill="white"/>
<path d="M50.6151 9.12711C50.6574 9.13836 50.6972 9.15773 50.7319 9.18412C50.7667 9.21052 50.7959 9.24341 50.8178 9.28093C50.8396 9.31844 50.8538 9.35984 50.8594 9.40275C50.865 9.44567 50.862 9.48925 50.8505 9.53101L51.3832 9.67303C51.6517 8.54863 50.0127 8.11356 49.6719 9.21787L50.2046 9.35642C50.2161 9.31462 50.2358 9.27545 50.2627 9.24116C50.2895 9.20687 50.3229 9.17813 50.3611 9.15657C50.3992 9.13502 50.4412 9.12108 50.4848 9.11555C50.5284 9.11002 50.5726 9.11301 50.6151 9.12434" fill="white"/>
<path d="M48.0461 9.53471C47.9421 9.11211 48.5662 8.94584 48.6927 9.3629L49.2248 9.22434C48.8839 8.11587 47.2449 8.5558 47.5141 9.6795L48.0461 9.53471Z" fill="white"/>
<path d="M46.6185 10.7712C46.7014 8.34646 43.3694 7.71741 42.4719 9.90455C42.0677 10.9229 42.4016 12.2836 43.4158 12.7997C44.354 13.311 45.6999 13.0768 46.4062 12.3037C46.3992 12.3002 45.7112 11.6968 45.7034 11.6913C45.0245 12.4623 43.5472 12.2725 43.363 11.1689H46.5904C46.61 11.0372 46.6189 10.9043 46.6171 10.7712H46.6185ZM43.3792 10.3604C43.6308 9.20552 45.3724 9.17643 45.598 10.3604H43.3792Z" fill="white"/>
<path d="M60.5674 10.7712C60.6496 8.34646 57.3183 7.71741 56.4208 9.90455C56.0174 10.9229 56.3505 12.2836 57.3647 12.7997C58.3029 13.311 59.6495 13.0768 60.3559 12.3037C60.3481 12.3002 59.6608 11.6968 59.6531 11.6913C58.9734 12.4623 57.4961 12.2725 57.312 11.1689H60.5428C60.5631 11.0373 60.5722 10.9043 60.5702 10.7712H60.5674ZM57.3316 10.3604C57.5839 9.20552 59.3255 9.17643 59.5511 10.3604H57.3316Z" fill="white"/>
</g>
</g>
</g>
<defs>
<linearGradient id="paint0_linear_9428_18380" x1="9.99177" y1="0.533203" x2="9.99177" y2="24.843" gradientUnits="userSpaceOnUse">
<stop stop-color="#057B57"/>
<stop offset="1" stop-color="#0BB07E"/>
</linearGradient>
<clipPath id="clip0_9428_18380">
<rect width="70" height="25.2" fill="white" transform="translate(0 0.0800781)"/>
</clipPath>
<clipPath id="clip1_9428_18380">
<rect width="33.2673" height="8.31683" fill="white" transform="translate(27.7227 6.31738)"/>
</clipPath>
<clipPath id="clip2_9428_18380">
<rect width="41.167" height="8.45896" fill="white" transform="translate(19.4023 6.31738)"/>
</clipPath>
</defs>
</svg>
