<svg width="100" height="35" viewBox="0 0 100 35" fill="none" xmlns="http://www.w3.org/2000/svg">
<path d="M23.3584 5.7793H97.5239C98.8538 5.7793 99.9319 6.85738 99.9319 8.18727V26.4878C99.9319 27.8177 98.8538 28.8958 97.5239 28.8958H23.3584V5.7793Z" fill="url(#paint0_linear_8632_16681)"/>
<path d="M14.207 0L0 6.31424V15.7856C0 24.5466 6.06167 32.7393 14.207 34.7283C22.3524 32.7393 28.4141 24.5466 28.4141 15.7856V6.31424L14.207 0Z" fill="url(#paint1_linear_8632_16681)"/>
<path d="M14.3222 5.29688L4.3291 9.73824V16.4003C4.3291 22.5627 8.59282 28.3254 14.3222 29.7244C20.0515 28.3254 24.3153 22.5627 24.3153 16.4003V9.73824L14.3222 5.29688ZM12.1015 23.0623L7.66013 18.621L9.22571 17.0554L12.1015 19.9201L19.4187 12.6029L20.9842 14.1796L12.1015 23.0623Z" fill="white"/>
<path d="M39.423 23.5537C39.423 23.9057 39.3793 24.2265 39.2918 24.516C39.2043 24.8034 39.071 25.0512 38.8919 25.2595C38.7149 25.4678 38.4899 25.6282 38.2171 25.7407C37.9442 25.851 37.6214 25.9062 37.2486 25.9062C36.8758 25.9062 36.5529 25.851 36.2801 25.7407C36.0072 25.6282 35.7813 25.4678 35.6021 25.2595C35.4251 25.0512 35.2928 24.8024 35.2054 24.5128C35.1179 24.2233 35.0741 23.9016 35.0741 23.5475C35.0741 23.0747 35.1512 22.6633 35.3053 22.3134C35.4615 21.9614 35.7011 21.6886 36.0239 21.4949C36.3467 21.3012 36.757 21.2043 37.2548 21.2043C37.7505 21.2043 38.1577 21.3012 38.4764 21.4949C38.7971 21.6886 39.0346 21.9614 39.1887 22.3134C39.3449 22.6654 39.423 23.0788 39.423 23.5537ZM36.0895 23.5537C36.0895 23.8724 36.1291 24.1473 36.2082 24.3785C36.2895 24.6076 36.4155 24.7847 36.5863 24.9096C36.757 25.0325 36.9778 25.0939 37.2486 25.0939C37.5235 25.0939 37.7464 25.0325 37.9172 24.9096C38.0879 24.7847 38.2119 24.6076 38.2889 24.3785C38.3681 24.1473 38.4076 23.8724 38.4076 23.5537C38.4076 23.0747 38.3181 22.6977 38.139 22.4228C37.9598 22.1478 37.6651 22.0104 37.2548 22.0104C36.982 22.0104 36.7591 22.0729 36.5863 22.1978C36.4155 22.3207 36.2895 22.4978 36.2082 22.7289C36.1291 22.958 36.0895 23.233 36.0895 23.5537ZM44.4217 25.8438H43.1908L41.2038 22.3884H41.1757C41.184 22.5321 41.1913 22.6769 41.1975 22.8227C41.2038 22.9685 41.21 23.1143 41.2163 23.2601C41.2225 23.4038 41.2288 23.5485 41.235 23.6943V25.8438H40.3696V21.2762H41.5912L43.575 24.6972H43.5969C43.5927 24.5555 43.5875 24.415 43.5813 24.2754C43.575 24.1359 43.5688 23.9963 43.5625 23.8568C43.5584 23.7172 43.5542 23.5777 43.5501 23.4381V21.2762H44.4217V25.8438ZM45.5745 25.8438V21.2762H46.543V25.044H48.3957V25.8438H45.5745ZM49.1923 25.8438V21.2762H50.1608V25.8438H49.1923ZM55.3626 25.8438H54.1317L52.1447 22.3884H52.1166C52.1249 22.5321 52.1322 22.6769 52.1384 22.8227C52.1447 22.9685 52.1509 23.1143 52.1572 23.2601C52.1634 23.4038 52.1697 23.5485 52.1759 23.6943V25.8438H51.3105V21.2762H52.5321L54.5159 24.6972H54.5378C54.5336 24.5555 54.5284 24.415 54.5222 24.2754C54.5159 24.1359 54.5097 23.9963 54.5034 23.8568C54.4993 23.7172 54.4951 23.5777 54.4909 23.4381V21.2762H55.3626V25.8438ZM59.146 25.8438H56.5154V21.2762H59.146V22.0697H57.4839V23.0726H59.0304V23.8661H57.4839V25.044H59.146V25.8438ZM63.0949 21.2762C63.5094 21.2762 63.851 21.3262 64.1197 21.4262C64.3904 21.5261 64.5914 21.6771 64.7226 21.8792C64.8538 22.0812 64.9194 22.3363 64.9194 22.6446C64.9194 22.8529 64.8799 23.0351 64.8007 23.1913C64.7216 23.3475 64.6174 23.4798 64.4883 23.5881C64.3592 23.6964 64.2196 23.7849 64.0697 23.8536L65.4131 25.8438H64.3383L63.248 24.0911H62.7325V25.8438H61.764V21.2762H63.0949ZM63.0262 22.0697H62.7325V23.3038H63.0449C63.3657 23.3038 63.5948 23.2507 63.7323 23.1445C63.8718 23.0362 63.9416 22.8779 63.9416 22.6696C63.9416 22.453 63.8666 22.2988 63.7166 22.2072C63.5688 22.1156 63.3386 22.0697 63.0262 22.0697ZM68.6185 25.8438H65.9879V21.2762H68.6185V22.0697H66.9564V23.0726H68.5029V23.8661H66.9564V25.044H68.6185V25.8438ZM71.3365 25.8438H70.368V22.0822H69.1277V21.2762H72.5768V22.0822H71.3365V25.8438ZM76.0759 25.8438L75.7447 24.7565H74.0795L73.7484 25.8438H72.7049L74.317 21.2575H75.501L77.1194 25.8438H76.0759ZM75.5135 23.9442L75.1824 22.882C75.1616 22.8112 75.1334 22.7206 75.098 22.6102C75.0647 22.4978 75.0303 22.3842 74.9949 22.2697C74.9616 22.1531 74.9345 22.052 74.9137 21.9666C74.8929 22.052 74.8637 22.1583 74.8262 22.2853C74.7908 22.4103 74.7565 22.529 74.7231 22.6415C74.6898 22.7539 74.6659 22.8341 74.6513 22.882L74.3232 23.9442H75.5135ZM77.6973 25.8438V21.2762H78.6658V25.8438H77.6973ZM79.8155 25.8438V21.2762H80.784V25.044H82.6367V25.8438H79.8155ZM86.0639 25.8438H83.4333V21.2762H86.0639V22.0697H84.4018V23.0726H85.9483V23.8661H84.4018V25.044H86.0639V25.8438ZM88.3508 21.2762C88.7653 21.2762 89.1069 21.3262 89.3755 21.4262C89.6463 21.5261 89.8473 21.6771 89.9785 21.8792C90.1097 22.0812 90.1753 22.3363 90.1753 22.6446C90.1753 22.8529 90.1358 23.0351 90.0566 23.1913C89.9775 23.3475 89.8733 23.4798 89.7442 23.5881C89.6151 23.6964 89.4755 23.7849 89.3255 23.8536L90.6689 25.8438H89.5942L88.5039 24.0911H87.9884V25.8438H87.0199V21.2762H88.3508ZM88.2821 22.0697H87.9884V23.3038H88.3008C88.6216 23.3038 88.8507 23.2507 88.9881 23.1445C89.1277 23.0362 89.1975 22.8779 89.1975 22.6696C89.1975 22.453 89.1225 22.2988 88.9725 22.2072C88.8246 22.1156 88.5945 22.0697 88.2821 22.0697Z" fill="white"/>
<path d="M39.1448 18.1086C38.4447 18.1086 37.9016 18.0121 37.5154 17.819C37.1372 17.6178 36.8596 17.3241 36.6826 16.9379C36.5136 16.5436 36.413 16.0568 36.3808 15.4775C36.3486 14.8901 36.3325 14.2061 36.3325 13.4256C36.3325 12.6451 36.3446 11.9612 36.3688 11.3738C36.4009 10.7864 36.5055 10.2956 36.6826 9.90132C36.8596 9.50705 37.1372 9.20933 37.5154 9.00817C37.9016 8.80701 38.4447 8.70643 39.1448 8.70643C39.8528 8.70643 40.396 8.80701 40.7741 9.00817C41.1604 9.20933 41.442 9.50705 41.619 9.90132C41.796 10.2956 41.8966 10.7864 41.9208 11.3738C41.9529 11.9612 41.969 12.6451 41.969 13.4256C41.969 14.2061 41.9529 14.8901 41.9208 15.4775C41.8886 16.0568 41.784 16.5436 41.6069 16.9379C41.4299 17.3241 41.1483 17.6178 40.7621 17.819C40.3839 18.0121 39.8448 18.1086 39.1448 18.1086ZM40.1345 12.9428C40.1345 12.3635 40.1264 11.8888 40.1103 11.5186C40.1023 11.1485 40.0661 10.8548 40.0017 10.6376C39.9373 10.4203 39.8367 10.2715 39.7 10.191C39.5712 10.1105 39.3861 10.0703 39.1448 10.0703C38.9114 10.0703 38.7263 10.1105 38.5896 10.191C38.4608 10.2715 38.3643 10.4203 38.2999 10.6376C38.2355 10.8548 38.1953 11.1485 38.1792 11.5186C38.1711 11.8888 38.1671 12.3635 38.1671 12.9428V13.7394C38.1671 14.3349 38.1711 14.8297 38.1792 15.224C38.1953 15.6102 38.2355 15.92 38.2999 16.1534C38.3643 16.3787 38.4608 16.5396 38.5896 16.6361C38.7263 16.7246 38.9114 16.7689 39.1448 16.7689C39.3861 16.7689 39.5712 16.7246 39.7 16.6361C39.8367 16.5396 39.9373 16.3787 40.0017 16.1534C40.0661 15.92 40.1023 15.6102 40.1103 15.224C40.1264 14.8297 40.1345 14.3349 40.1345 13.7394V12.9428ZM44.6845 18V8.8392H49.2347V10.2634H46.4949V12.8222H49.0295V14.2222H46.4949V18H44.6845ZM51.608 18V8.8392H56.1582V10.2634H53.4184V12.8222H55.953V14.2222H53.4184V18H51.608ZM58.616 18V8.8392H60.4144V18H58.616ZM68.6926 14.7291C68.6926 15.228 68.6725 15.6826 68.6322 16.093C68.6 16.5034 68.4954 16.8614 68.3184 17.1672C68.1494 17.4649 67.8839 17.6983 67.5218 17.8672C67.1678 18.0282 66.6729 18.1086 66.0373 18.1086C65.3372 18.1086 64.7941 18.0121 64.4079 17.819C64.0297 17.6178 63.7521 17.3241 63.5751 16.9379C63.3981 16.5436 63.2934 16.0568 63.2613 15.4775C63.2291 14.8901 63.213 14.2061 63.213 13.4256C63.213 12.6451 63.2251 11.9612 63.2492 11.3738C63.2814 10.7864 63.386 10.2956 63.563 9.90132C63.74 9.50705 64.0176 9.20933 64.3958 9.00817C64.782 8.80701 65.3292 8.70643 66.0373 8.70643C66.6568 8.70643 67.1436 8.78287 67.4977 8.93575C67.8517 9.08863 68.1173 9.30589 68.2943 9.58751C68.4713 9.86913 68.5799 10.2071 68.6202 10.6014C68.6684 10.9876 68.6926 11.414 68.6926 11.8807H67.0149C67.0069 11.5508 66.9908 11.2732 66.9666 11.0479C66.9425 10.8146 66.8982 10.6255 66.8339 10.4807C66.7695 10.3358 66.6729 10.2312 66.5442 10.1668C66.4154 10.1025 66.2465 10.0703 66.0373 10.0703C65.7959 10.0703 65.6068 10.1226 65.47 10.2272C65.3332 10.3238 65.2326 10.5008 65.1683 10.7583C65.1119 11.0077 65.0757 11.3497 65.0596 11.7842C65.0516 12.2106 65.0476 12.7538 65.0476 13.4136C65.0476 14.0734 65.0516 14.6205 65.0596 15.055C65.0677 15.4815 65.0999 15.8235 65.1562 16.0809C65.2206 16.3304 65.3171 16.5074 65.4459 16.612C65.5826 16.7166 65.7798 16.7689 66.0373 16.7689C66.2545 16.7689 66.4275 16.7327 66.5563 16.6603C66.685 16.5879 66.7816 16.4712 66.8459 16.3103C66.9183 16.1493 66.9626 15.9401 66.9787 15.6826C67.0028 15.4252 67.0149 15.1073 67.0149 14.7291H68.6926ZM71.4965 18V8.8392H73.2948V18H71.4965ZM80.1126 18L79.7747 15.9602H77.916L77.566 18H75.7555L77.6022 8.8392H80.1851L81.9714 18H80.1126ZM79.2316 12.5808C79.1833 12.2991 79.139 12.0537 79.0988 11.8445C79.0666 11.6273 79.0385 11.4301 79.0143 11.2531C78.9902 11.068 78.966 10.887 78.9419 10.71C78.9258 10.533 78.9057 10.3398 78.8816 10.1306C78.8574 10.3398 78.8333 10.533 78.8091 10.71C78.785 10.887 78.7568 11.068 78.7246 11.2531C78.7005 11.4301 78.6683 11.6273 78.6281 11.8445C78.5959 12.0537 78.5557 12.2991 78.5074 12.5808L78.1332 14.5843H79.5695L79.2316 12.5808ZM84.3396 18V8.8392H86.1501V16.5396H88.6968V18H84.3396Z" fill="white"/>
<defs>
<linearGradient id="paint0_linear_8632_16681" x1="30.5823" y1="12.642" x2="99.9319" y2="12.642" gradientUnits="userSpaceOnUse">
<stop stop-color="#034EA2"/>
<stop offset="1" stop-color="#0169DE"/>
</linearGradient>
<linearGradient id="paint1_linear_8632_16681" x1="14.207" y1="0" x2="14.207" y2="34.7283" gradientUnits="userSpaceOnUse">
<stop stop-color="#034EA2"/>
<stop offset="1" stop-color="#026CE3"/>
</linearGradient>
</defs>
</svg>
